<svg id="svg" xmlns="http://www.w3.org/2000/svg" xmlns:xlink="http://www.w3.org/1999/xlink" width="400" height="400" viewBox="0, 0, 400,400"><g id="svgg"><path id="path0" d="M331.091 131.443 C 330.973 131.560,329.284 131.715,327.338 131.786 C 325.392 131.857,322.810 132.107,321.600 132.343 C 320.390 132.579,318.680 132.846,317.800 132.938 C 316.920 133.030,315.333 133.310,314.274 133.560 C 313.215 133.810,312.180 133.911,311.974 133.784 C 311.768 133.657,311.600 133.723,311.600 133.932 C 311.600 134.266,310.669 134.546,307.800 135.075 C 307.360 135.157,306.943 135.388,306.874 135.589 C 306.805 135.790,306.490 135.856,306.174 135.735 C 305.858 135.614,305.600 135.714,305.600 135.957 C 305.600 136.201,305.240 136.400,304.800 136.400 C 303.863 136.400,303.733 135.788,304.600 135.455 C 307.083 134.503,303.172 134.400,264.400 134.400 L 223.600 134.400 223.548 135.300 C 223.184 141.631,223.166 141.584,225.900 141.594 C 226.835 141.597,227.600 141.758,227.600 141.951 C 227.600 142.144,228.105 142.259,228.722 142.207 C 229.339 142.154,230.914 142.256,232.222 142.433 C 233.530 142.611,236.040 142.853,237.800 142.971 C 243.309 143.341,246.400 143.694,246.400 143.952 C 246.400 144.089,247.747 144.225,249.394 144.255 C 251.040 144.285,252.654 144.412,252.981 144.537 C 253.307 144.663,256.229 144.963,259.474 145.206 C 262.719 145.448,265.559 145.789,265.787 145.964 C 266.014 146.138,266.920 146.302,267.800 146.326 C 268.680 146.351,271.110 146.550,273.200 146.770 C 275.290 146.990,278.530 147.276,280.400 147.407 C 285.047 147.730,286.003 147.943,285.094 148.451 C 284.712 148.665,284.400 148.976,284.400 149.143 C 284.400 149.309,283.613 150.290,282.652 151.323 L 280.903 153.200 249.243 153.200 L 217.583 153.200 217.127 152.200 C 216.877 151.650,216.533 151.200,216.363 151.200 C 216.193 151.200,215.932 150.817,215.784 150.349 C 215.547 149.604,214.000 147.705,211.953 145.649 C 210.039 143.726,205.262 140.464,204.000 140.218 C 203.890 140.197,203.350 139.879,202.800 139.513 C 202.250 139.146,201.321 138.761,200.735 138.656 C 200.149 138.551,199.318 138.277,198.888 138.047 C 198.457 137.817,197.992 137.742,197.853 137.881 C 197.714 138.020,197.600 137.893,197.600 137.600 C 197.600 137.307,197.496 137.170,197.370 137.297 C 197.243 137.423,196.568 137.348,195.870 137.130 C 195.171 136.912,194.060 136.658,193.400 136.567 C 192.740 136.475,191.930 136.281,191.600 136.135 C 190.315 135.566,188.908 135.242,186.400 134.938 C 183.262 134.557,26.008 134.313,25.963 134.689 C 25.461 138.909,25.645 141.194,26.501 141.371 C 28.518 141.787,31.529 142.142,33.647 142.212 C 34.883 142.254,36.056 142.387,36.253 142.509 C 36.450 142.631,39.394 142.936,42.795 143.187 C 46.196 143.437,49.074 143.773,49.190 143.932 C 49.305 144.092,50.300 144.207,51.400 144.189 C 52.500 144.171,54.030 144.294,54.800 144.462 C 55.570 144.631,57.640 144.868,59.400 144.988 C 65.835 145.430,68.193 145.672,68.592 145.933 C 68.816 146.080,69.630 146.233,70.400 146.274 C 73.626 146.446,78.173 146.860,78.406 147.003 C 78.543 147.088,80.713 147.274,83.228 147.416 C 85.743 147.558,87.980 147.822,88.200 148.002 C 88.420 148.182,89.050 148.342,89.600 148.358 C 92.345 148.438,96.885 148.830,99.277 149.193 C 100.749 149.417,103.123 149.600,104.553 149.600 C 105.983 149.600,107.264 149.780,107.400 150.000 C 107.536 150.220,108.154 150.400,108.774 150.400 C 111.450 150.400,112.400 150.832,112.400 152.050 L 112.400 153.200 67.650 153.200 L 22.900 153.200 22.650 154.450 C 22.197 156.713,22.356 160.665,22.900 160.689 C 25.704 160.813,31.113 161.322,33.200 161.658 C 34.630 161.888,36.978 162.116,38.419 162.164 C 39.859 162.213,41.213 162.361,41.427 162.493 C 41.641 162.625,43.702 162.853,46.008 163.001 C 48.314 163.148,51.370 163.459,52.800 163.694 C 54.230 163.928,56.705 164.137,58.300 164.160 C 59.895 164.182,61.200 164.306,61.200 164.435 C 61.200 164.687,68.513 165.480,71.787 165.583 C 72.879 165.618,73.983 165.820,74.239 166.033 C 74.496 166.245,76.572 166.512,78.853 166.625 C 81.134 166.737,84.080 167.002,85.400 167.212 C 86.720 167.422,89.105 167.595,90.700 167.597 C 92.413 167.599,93.600 167.768,93.600 168.010 C 93.600 168.250,94.349 168.364,95.400 168.285 C 96.390 168.211,97.200 168.270,97.200 168.417 C 97.200 168.564,98.415 168.708,99.900 168.737 C 104.501 168.828,109.268 169.645,109.017 170.300 C 108.898 170.611,108.800 171.211,108.800 171.633 C 108.800 172.385,107.897 172.400,64.057 172.400 L 19.314 172.400 19.057 174.859 C 18.589 179.338,18.641 179.600,20.000 179.600 C 20.660 179.600,21.200 179.735,21.200 179.900 C 21.200 180.065,22.325 180.189,23.700 180.175 C 25.075 180.161,26.562 180.275,27.004 180.428 C 27.446 180.582,29.516 180.829,31.604 180.977 C 33.692 181.126,36.840 181.440,38.600 181.676 C 40.360 181.912,42.885 182.137,44.212 182.175 C 45.539 182.213,46.826 182.369,47.073 182.522 C 47.320 182.674,50.282 182.993,53.656 183.230 C 57.030 183.467,59.883 183.794,59.995 183.958 C 60.108 184.121,60.830 184.272,61.600 184.294 C 63.457 184.345,67.907 184.763,71.529 185.226 C 73.140 185.432,75.447 185.600,76.655 185.600 C 77.864 185.600,79.170 185.770,79.559 185.978 C 80.239 186.342,86.879 186.992,94.800 187.471 C 96.890 187.597,98.799 187.858,99.041 188.051 C 99.284 188.243,99.914 188.385,100.441 188.365 C 101.513 188.326,105.318 188.820,105.548 189.028 C 105.629 189.102,105.576 189.803,105.429 190.586 L 105.162 192.010 60.481 191.994 L 15.800 191.977 15.683 194.782 C 15.517 198.741,15.772 199.070,19.084 199.165 C 20.578 199.208,22.970 199.414,24.400 199.623 C 29.363 200.347,34.600 200.879,42.100 201.419 C 44.025 201.558,45.600 201.849,45.600 202.065 C 45.600 202.302,46.937 202.407,48.963 202.329 C 50.813 202.258,52.242 202.335,52.140 202.500 C 52.037 202.665,52.728 202.814,53.676 202.831 C 54.624 202.847,55.760 202.935,56.200 203.024 C 56.640 203.114,58.710 203.296,60.800 203.428 C 62.890 203.561,64.804 203.838,65.053 204.045 C 65.302 204.251,66.022 204.403,66.653 204.383 C 67.833 204.346,71.474 204.625,75.000 205.023 C 76.100 205.147,78.800 205.427,81.000 205.645 C 83.200 205.863,85.540 206.121,86.200 206.217 C 87.827 206.454,90.149 206.698,95.600 207.207 C 102.489 207.850,102.400 207.821,102.400 209.430 L 102.400 210.796 59.100 210.898 L 15.800 211.000 15.680 213.792 C 15.461 218.856,14.418 218.339,27.000 219.408 C 28.760 219.558,30.380 219.812,30.600 219.973 C 30.820 220.135,32.080 220.297,33.400 220.334 C 34.720 220.372,36.610 220.490,37.600 220.598 C 38.590 220.706,40.390 220.875,41.600 220.974 C 48.401 221.531,49.827 221.727,50.094 222.142 C 50.304 222.470,50.389 222.454,50.394 222.086 C 50.398 221.704,50.596 221.677,51.166 221.982 C 51.588 222.208,52.492 222.327,53.175 222.248 C 53.858 222.168,54.493 222.226,54.586 222.377 C 54.679 222.528,55.620 222.677,56.678 222.708 C 57.735 222.740,59.410 222.865,60.400 222.987 C 61.390 223.108,64.090 223.384,66.400 223.599 C 68.710 223.814,71.140 224.094,71.800 224.221 C 72.460 224.347,74.080 224.532,75.400 224.631 C 76.720 224.730,79.118 224.989,80.729 225.206 C 82.340 225.423,84.785 225.600,86.162 225.600 C 87.540 225.600,88.792 225.725,88.945 225.878 C 89.288 226.221,89.814 226.301,93.600 226.587 C 98.693 226.971,98.863 227.042,98.722 228.737 L 98.600 230.200 57.200 230.293 L 15.800 230.387 15.683 233.860 C 15.548 237.898,15.512 237.854,19.187 238.204 C 20.624 238.341,22.430 238.527,23.200 238.618 C 26.700 239.028,35.990 239.796,36.700 239.733 C 36.975 239.709,37.200 239.827,37.200 239.996 C 37.200 240.164,37.965 240.270,38.900 240.230 C 39.835 240.191,40.960 240.280,41.400 240.428 C 42.164 240.686,44.328 240.900,51.400 241.415 C 53.160 241.544,55.140 241.801,55.800 241.988 C 56.460 242.175,57.270 242.339,57.600 242.352 C 59.595 242.431,63.952 242.811,64.800 242.979 C 65.350 243.088,67.510 243.282,69.600 243.410 C 71.690 243.538,73.940 243.750,74.600 243.881 C 76.997 244.358,77.434 244.408,88.200 245.434 C 95.928 246.170,95.679 246.098,95.443 247.530 C 95.345 248.118,95.251 248.735,95.233 248.900 C 95.215 249.065,77.399 249.200,55.643 249.200 C 19.941 249.200,16.062 249.262,15.843 249.833 C 15.709 250.181,15.600 251.977,15.600 253.825 C 15.600 257.647,15.144 257.236,20.200 257.972 C 23.013 258.381,23.670 258.443,33.600 259.238 C 36.570 259.475,39.180 259.815,39.400 259.992 C 39.620 260.169,40.654 260.284,41.697 260.248 C 42.741 260.212,43.641 260.296,43.697 260.435 C 43.792 260.668,45.371 260.815,54.200 261.415 C 55.960 261.534,57.850 261.746,58.400 261.886 C 59.641 262.202,61.065 262.376,64.400 262.622 C 65.830 262.728,68.318 262.991,69.929 263.207 C 71.540 263.423,74.015 263.600,75.429 263.600 C 76.928 263.600,78.000 263.772,78.000 264.013 C 78.000 264.239,78.585 264.389,79.300 264.345 C 80.015 264.301,80.960 264.374,81.400 264.506 C 81.840 264.638,83.910 264.858,86.000 264.994 C 88.090 265.130,90.700 265.423,91.800 265.645 C 93.069 265.901,104.215 266.003,122.300 265.924 C 137.975 265.856,150.800 265.890,150.800 266.000 C 150.799 266.252,153.597 266.156,154.400 265.876 C 154.730 265.761,156.800 265.557,159.000 265.424 C 161.200 265.290,163.990 265.078,165.200 264.952 C 166.410 264.826,167.805 264.705,168.300 264.682 C 168.795 264.659,169.200 264.485,169.200 264.296 C 169.200 264.107,169.388 264.069,169.618 264.211 C 169.847 264.353,170.252 264.298,170.518 264.088 C 170.783 263.879,171.720 263.605,172.600 263.478 C 173.480 263.352,174.650 263.150,175.200 263.031 C 175.750 262.911,176.707 262.703,177.327 262.569 C 177.947 262.435,178.937 262.073,179.527 261.765 C 180.117 261.457,180.875 261.204,181.211 261.202 C 181.547 261.201,182.198 260.936,182.658 260.614 C 183.119 260.292,183.609 260.142,183.747 260.281 C 183.886 260.420,184.000 260.323,184.000 260.067 C 184.000 259.810,184.135 259.633,184.300 259.674 C 184.653 259.762,187.535 258.587,188.400 258.003 C 188.730 257.780,189.417 257.418,189.927 257.199 C 191.574 256.489,198.048 251.305,199.858 249.246 C 200.364 248.671,201.020 247.930,201.316 247.600 C 202.553 246.221,205.400 242.362,205.400 242.065 C 205.400 241.888,205.715 241.428,206.100 241.043 C 206.485 240.658,206.800 240.176,206.800 239.971 C 206.800 239.544,208.531 239.464,208.940 239.874 C 209.091 240.024,210.336 240.195,211.707 240.253 C 213.078 240.310,214.830 240.451,215.600 240.565 C 216.370 240.679,218.710 240.953,220.800 241.175 C 226.502 241.779,228.496 242.001,229.600 242.153 C 230.774 242.315,234.173 242.699,237.000 242.988 C 238.100 243.101,240.800 243.298,243.000 243.426 C 245.200 243.554,247.392 243.849,247.871 244.082 C 248.350 244.314,249.205 244.416,249.771 244.308 C 250.337 244.199,250.800 244.222,250.800 244.358 C 250.800 244.495,251.925 244.659,253.300 244.723 C 254.675 244.787,256.970 245.007,258.400 245.212 C 259.830 245.417,261.720 245.588,262.600 245.592 C 264.103 245.600,264.250 245.709,265.034 247.400 L 265.867 249.200 233.921 249.200 C 205.163 249.200,201.951 249.263,201.732 249.833 C 201.599 250.180,201.469 251.740,201.445 253.298 C 201.392 256.662,201.349 256.636,207.600 257.043 C 209.690 257.179,212.570 257.452,214.000 257.650 C 216.725 258.027,218.738 258.250,222.400 258.584 C 223.610 258.694,225.140 258.865,225.800 258.964 C 226.460 259.062,228.697 259.254,230.770 259.391 C 232.844 259.528,234.726 259.754,234.952 259.894 C 235.179 260.034,236.092 260.206,236.982 260.277 C 237.872 260.347,240.490 260.582,242.800 260.799 C 245.110 261.017,248.620 261.308,250.600 261.448 C 252.580 261.587,254.290 261.837,254.400 262.002 C 254.510 262.168,255.140 262.297,255.800 262.289 C 256.460 262.280,257.810 262.385,258.800 262.522 C 260.680 262.781,263.737 263.040,269.800 263.454 C 271.780 263.589,273.616 263.872,273.880 264.082 C 274.144 264.293,274.957 264.413,275.686 264.351 C 276.415 264.288,277.189 264.334,277.406 264.453 C 278.438 265.022,281.300 264.838,281.063 264.219 C 280.742 263.384,281.319 263.440,282.890 264.399 C 283.611 264.838,284.470 265.199,284.800 265.201 C 285.130 265.203,285.867 265.448,286.437 265.746 C 287.415 266.256,289.046 266.657,291.800 267.065 C 292.460 267.163,293.990 267.484,295.200 267.778 C 296.410 268.072,298.262 268.326,299.315 268.342 C 300.368 268.358,301.393 268.472,301.593 268.596 C 302.096 268.906,314.093 268.893,319.200 268.577 C 326.100 268.149,326.596 268.111,326.700 268.003 C 326.891 267.806,327.954 267.655,333.800 266.993 C 334.240 266.943,334.600 266.861,334.600 266.811 C 334.600 266.761,335.050 266.663,335.600 266.593 C 336.150 266.522,337.005 266.360,337.500 266.232 C 338.648 265.936,339.589 265.742,342.800 265.139 C 344.230 264.871,345.755 264.415,346.189 264.126 C 346.623 263.837,347.379 263.600,347.869 263.600 C 349.322 263.600,358.097 260.957,359.613 260.063 C 359.950 259.864,360.783 259.579,361.463 259.430 C 362.555 259.190,362.727 258.961,362.923 257.479 C 363.259 254.939,364.032 250.641,364.772 247.200 C 365.358 244.473,366.060 240.351,366.175 238.961 C 366.231 238.280,366.390 237.540,366.528 237.316 C 366.667 237.092,366.970 235.231,367.202 233.181 C 367.434 231.130,367.788 229.255,367.988 229.014 C 368.188 228.774,368.350 228.042,368.348 227.388 C 368.346 226.735,368.462 225.750,368.605 225.200 C 368.749 224.650,369.067 222.670,369.312 220.800 C 369.557 218.930,369.889 217.308,370.050 217.195 C 370.210 217.082,370.459 215.770,370.603 214.279 C 370.747 212.788,371.030 210.992,371.232 210.287 C 371.435 209.582,371.600 208.340,371.600 207.526 C 371.600 206.713,371.769 205.943,371.975 205.816 C 372.181 205.688,372.352 205.273,372.355 204.892 C 372.357 204.511,372.643 202.490,372.988 200.400 C 373.333 198.310,373.652 196.195,373.695 195.700 C 373.739 195.205,373.882 194.800,374.015 194.800 C 374.147 194.800,374.278 194.305,374.308 193.700 C 374.337 193.095,374.542 191.790,374.763 190.800 C 374.984 189.810,375.173 188.415,375.183 187.700 L 375.200 186.400 348.800 186.400 L 322.400 186.400 322.400 188.176 C 322.400 189.153,322.241 190.051,322.046 190.171 C 321.728 190.368,321.269 192.495,320.963 195.200 C 320.678 197.711,320.332 199.850,320.123 200.400 C 319.997 200.730,319.842 201.360,319.779 201.800 C 319.716 202.240,319.549 203.140,319.409 203.800 C 319.269 204.460,318.966 206.440,318.737 208.200 C 318.507 209.960,318.149 211.719,317.941 212.108 C 317.733 212.498,317.658 212.970,317.773 213.156 C 317.889 213.343,317.718 214.516,317.393 215.762 C 317.069 217.008,316.687 219.281,316.544 220.814 L 316.285 223.600 320.900 223.600 L 325.515 223.600 325.167 225.149 C 324.521 228.022,324.065 228.761,322.514 229.447 C 318.276 231.323,304.905 231.295,306.367 229.413 C 306.544 229.186,306.707 228.349,306.730 227.554 C 306.753 226.759,306.954 225.319,307.176 224.354 C 307.398 223.389,307.585 221.961,307.590 221.180 C 307.596 220.399,307.762 219.589,307.960 219.380 C 308.288 219.035,308.699 217.001,308.967 214.400 C 309.024 213.850,309.212 212.278,309.386 210.906 C 309.560 209.534,309.664 208.294,309.617 208.150 C 309.570 208.007,309.691 207.779,309.885 207.645 C 310.284 207.368,311.046 203.438,311.425 199.701 C 311.564 198.326,311.829 197.294,312.013 197.408 C 312.198 197.522,312.315 196.712,312.274 195.607 C 312.233 194.503,312.305 193.599,312.433 193.600 C 312.562 193.600,312.674 193.375,312.683 193.100 C 312.708 192.296,313.627 186.876,314.191 184.200 C 314.284 183.760,314.441 182.860,314.539 182.200 C 315.638 174.838,317.104 173.044,322.698 172.214 C 323.524 172.091,325.460 171.794,327.000 171.552 C 330.153 171.058,346.392 171.295,347.262 171.848 C 347.558 172.035,348.880 172.218,350.200 172.254 C 351.520 172.290,352.870 172.420,353.200 172.544 C 353.530 172.668,355.578 172.959,357.750 173.192 C 359.923 173.424,361.879 173.725,362.097 173.860 C 364.653 175.439,365.876 174.629,367.017 170.600 C 367.391 169.280,367.840 168.020,368.014 167.800 C 368.189 167.580,368.369 167.220,368.414 167.000 C 368.459 166.780,368.653 166.187,368.845 165.682 C 369.037 165.178,369.310 164.278,369.452 163.682 C 369.594 163.087,369.873 162.392,370.072 162.139 C 370.451 161.655,371.107 159.688,371.447 158.012 C 371.557 157.469,371.799 156.839,371.984 156.612 C 372.366 156.145,374.166 151.180,375.014 148.254 C 375.325 147.183,375.747 146.103,375.952 145.854 C 376.374 145.339,377.799 140.759,377.678 140.300 C 377.635 140.135,377.791 140.000,378.024 140.000 C 378.257 140.000,378.336 139.820,378.200 139.600 C 378.064 139.380,378.143 139.200,378.376 139.200 C 378.609 139.200,378.800 139.009,378.800 138.776 C 378.800 138.543,378.640 138.451,378.445 138.572 C 378.250 138.693,378.115 138.499,378.145 138.143 C 378.175 137.786,377.930 137.442,377.600 137.379 C 377.270 137.316,375.920 136.882,374.600 136.416 C 371.596 135.354,370.552 135.089,366.000 134.230 C 365.450 134.126,364.595 133.942,364.100 133.821 C 362.092 133.329,361.489 133.242,356.941 132.794 C 354.337 132.538,352.073 132.245,351.909 132.144 C 351.076 131.629,331.561 130.972,331.091 131.443 M227.999 163.956 C 228.109 164.112,229.010 164.278,230.000 164.326 C 234.222 164.530,245.940 165.665,247.536 166.025 C 248.491 166.240,250.651 166.514,252.336 166.632 C 254.021 166.751,256.030 166.923,256.800 167.013 C 257.570 167.104,260.000 167.297,262.200 167.442 C 264.400 167.587,266.406 167.868,266.658 168.067 C 266.910 168.266,267.769 168.356,268.568 168.268 C 269.366 168.180,270.118 168.267,270.237 168.461 C 270.357 168.654,270.596 168.726,270.769 168.619 C 271.549 168.137,272.516 169.426,271.864 170.079 C 271.521 170.422,271.132 171.130,271.001 171.652 L 270.763 172.600 246.582 172.600 C 230.753 172.600,222.387 172.462,222.361 172.200 C 222.340 171.980,222.354 171.116,222.393 170.280 C 222.432 169.443,222.281 168.539,222.058 168.269 C 221.834 168.000,221.548 166.726,221.421 165.438 L 221.192 163.096 224.494 163.384 C 226.311 163.543,227.888 163.800,227.999 163.956 M174.037 174.178 C 175.239 174.790,175.483 175.133,175.526 176.275 C 175.554 177.025,175.660 177.774,175.762 177.939 C 175.864 178.103,175.789 178.494,175.596 178.806 C 175.385 179.148,175.415 179.577,175.672 179.887 C 175.906 180.169,175.930 180.400,175.725 180.400 C 175.521 180.400,175.127 182.065,174.851 184.100 C 174.575 186.135,174.182 188.340,173.977 189.000 C 173.597 190.228,173.352 191.649,172.981 194.773 C 172.865 195.748,172.577 197.368,172.341 198.373 C 172.104 199.378,171.845 200.695,171.763 201.300 C 171.682 201.905,171.516 202.895,171.395 203.500 C 171.274 204.105,171.073 205.410,170.950 206.400 C 170.826 207.390,170.555 208.920,170.347 209.800 C 169.965 211.417,169.729 212.692,169.443 214.700 C 167.814 226.131,166.900 226.800,152.912 226.800 L 144.352 226.800 144.581 225.500 C 144.707 224.785,144.982 222.785,145.193 221.056 C 145.403 219.327,145.741 217.707,145.943 217.456 C 146.146 217.205,146.309 216.550,146.306 216.000 C 146.303 215.450,146.492 214.010,146.725 212.800 C 146.958 211.590,147.265 209.383,147.407 207.896 C 147.549 206.409,147.794 205.273,147.952 205.370 C 148.111 205.468,148.264 205.155,148.293 204.674 C 148.322 204.193,148.545 202.540,148.788 201.000 C 149.032 199.460,149.381 197.005,149.564 195.545 C 149.748 194.084,150.024 192.685,150.178 192.435 C 150.332 192.186,150.546 191.131,150.653 190.091 C 150.760 189.051,150.942 187.750,151.058 187.200 C 151.174 186.650,151.365 185.210,151.483 184.000 C 151.601 182.790,151.876 181.577,152.094 181.305 C 152.311 181.033,152.385 180.538,152.257 180.205 C 152.130 179.872,152.185 179.600,152.381 179.600 C 152.576 179.600,152.853 178.385,152.997 176.900 C 153.140 175.415,153.333 173.963,153.426 173.674 C 153.717 172.767,172.154 173.218,174.037 174.178 M228.000 183.987 C 228.110 184.134,228.830 184.284,229.600 184.320 C 231.766 184.421,235.670 184.770,237.000 184.982 C 237.660 185.087,240.180 185.291,242.600 185.435 C 245.020 185.578,247.180 185.830,247.400 185.993 C 247.620 186.157,248.070 186.301,248.400 186.313 C 248.730 186.325,251.250 186.540,254.000 186.789 C 256.750 187.039,260.646 187.347,262.658 187.474 L 266.316 187.705 265.620 189.752 L 264.924 191.800 243.262 191.903 L 221.600 192.007 221.556 190.503 C 221.488 188.205,221.591 187.169,222.092 185.097 L 222.553 183.193 225.176 183.456 C 226.619 183.601,227.890 183.840,228.000 183.987 M227.099 203.437 C 229.228 203.551,231.176 203.814,231.427 204.022 C 231.678 204.230,232.314 204.393,232.841 204.383 C 234.259 204.356,238.148 204.692,241.990 205.175 C 243.854 205.409,246.408 205.600,247.666 205.600 C 248.924 205.600,250.062 205.777,250.196 205.994 C 250.330 206.211,250.836 206.375,251.320 206.358 C 252.294 206.326,256.058 206.619,259.900 207.028 C 262.388 207.292,262.400 207.300,262.400 208.567 C 262.400 210.883,263.255 210.800,239.520 210.800 C 220.194 210.800,215.972 210.630,217.985 209.933 C 218.197 209.860,218.462 209.170,218.574 208.400 C 218.686 207.630,218.859 206.640,218.958 206.200 C 219.058 205.760,219.153 204.792,219.169 204.048 L 219.200 202.697 221.214 202.964 C 222.322 203.111,224.970 203.324,227.099 203.437 M217.751 221.885 C 217.908 222.041,218.793 222.204,219.718 222.246 C 220.643 222.288,222.120 222.420,223.000 222.539 C 225.438 222.869,229.904 223.283,232.800 223.449 C 236.243 223.645,237.341 223.793,237.892 224.133 C 238.144 224.289,238.856 224.406,239.475 224.393 C 240.094 224.380,242.220 224.547,244.200 224.764 C 246.180 224.981,249.420 225.268,251.400 225.401 C 254.684 225.623,258.315 226.146,260.100 226.655 C 260.631 226.806,260.800 227.281,260.800 228.627 L 260.800 230.400 236.200 230.400 C 220.067 230.400,211.600 230.262,211.600 230.000 C 211.600 229.780,211.744 229.600,211.921 229.600 C 212.097 229.600,212.576 228.430,212.985 227.000 C 213.394 225.570,213.859 224.400,214.020 224.400 C 214.180 224.400,214.429 223.770,214.574 223.000 C 214.832 221.620,216.797 220.931,217.751 221.885 " stroke="none" fill="#ec1c64" fill-rule="evenodd"></path><path id="path1" d="M283.170 150.268 L 282.200 151.336 283.287 150.568 C 283.886 150.146,284.381 149.665,284.387 149.500 C 284.408 149.007,284.189 149.146,283.170 150.268 M38.931 191.900 C 51.213 191.959,71.193 191.959,83.331 191.900 C 95.469 191.841,85.420 191.793,61.000 191.793 C 36.580 191.793,26.649 191.841,38.931 191.900 M232.300 191.900 C 238.295 191.962,248.105 191.962,254.100 191.900 C 260.095 191.838,255.190 191.787,243.200 191.787 C 231.210 191.787,226.305 191.838,232.300 191.900 M309.690 208.622 C 309.641 209.214,309.772 209.541,310.003 209.398 C 310.471 209.109,310.542 207.600,310.087 207.600 C 309.915 207.600,309.736 208.060,309.690 208.622 M255.941 226.101 C 256.143 226.303,256.733 226.401,257.254 226.319 C 258.055 226.193,257.998 226.137,256.887 225.952 C 256.093 225.821,255.719 225.879,255.941 226.101 M16.400 230.000 C 16.400 230.264,30.325 230.400,57.376 230.400 C 84.263 230.400,98.438 230.262,98.600 230.000 C 98.764 229.734,85.004 229.600,57.624 229.600 C 30.408 229.600,16.400 229.736,16.400 230.000 M211.600 230.000 C 211.600 230.262,220.067 230.400,236.200 230.400 C 252.333 230.400,260.800 230.262,260.800 230.000 C 260.800 229.738,252.333 229.600,236.200 229.600 C 220.067 229.600,211.600 229.738,211.600 230.000 M308.716 230.697 C 310.099 230.775,312.259 230.774,313.516 230.695 C 314.772 230.616,313.640 230.552,311.000 230.553 C 308.360 230.553,307.332 230.618,308.716 230.697 M35.639 240.032 C 36.328 240.468,37.200 240.506,37.200 240.100 C 37.200 239.935,36.722 239.772,36.138 239.738 C 35.379 239.694,35.237 239.778,35.639 240.032 M246.600 244.000 C 246.736 244.220,247.117 244.400,247.447 244.400 C 247.777 244.400,247.936 244.220,247.800 244.000 C 247.664 243.780,247.283 243.600,246.953 243.600 C 246.623 243.600,246.464 243.780,246.600 244.000 M93.975 246.223 C 94.622 246.346,95.233 246.710,95.334 247.031 C 95.452 247.403,95.496 247.358,95.456 246.908 C 95.412 246.413,95.004 246.170,94.097 246.100 C 92.860 246.005,92.854 246.010,93.975 246.223 M233.838 248.702 C 200.351 248.811,201.158 248.760,201.247 250.749 C 201.293 251.762,201.304 251.756,201.551 250.600 L 201.808 249.400 234.004 249.200 C 251.712 249.090,266.020 248.910,265.800 248.800 C 265.580 248.690,251.197 248.646,233.838 248.702 M15.867 249.067 C 15.720 249.213,15.603 249.528,15.606 249.767 C 15.610 250.025,15.740 249.999,15.929 249.702 C 16.177 249.311,24.771 249.182,55.822 249.100 L 95.400 248.996 55.767 248.898 C 33.968 248.844,16.013 248.920,15.867 249.067 M121.400 266.000 L 92.600 266.208 121.700 266.304 C 140.897 266.367,150.800 266.264,150.800 266.000 C 150.800 265.780,150.665 265.643,150.500 265.696 C 150.335 265.749,137.240 265.886,121.400 266.000 M338.316 266.061 C 337.957 266.288,338.067 266.390,338.676 266.394 C 339.158 266.397,339.645 266.250,339.759 266.067 C 340.024 265.638,338.989 265.633,338.316 266.061 M151.700 266.276 C 152.085 266.376,152.715 266.376,153.100 266.276 C 153.485 266.175,153.170 266.093,152.400 266.093 C 151.630 266.093,151.315 266.175,151.700 266.276 " stroke="none" fill="#f01c64" fill-rule="evenodd"></path><path id="path2" d="M283.170 150.268 L 282.200 151.336 283.287 150.568 C 283.886 150.146,284.381 149.665,284.387 149.500 C 284.408 149.007,284.189 149.146,283.170 150.268 M38.931 191.900 C 51.213 191.959,71.193 191.959,83.331 191.900 C 95.469 191.841,85.420 191.793,61.000 191.793 C 36.580 191.793,26.649 191.841,38.931 191.900 M232.300 191.900 C 238.295 191.962,248.105 191.962,254.100 191.900 C 260.095 191.838,255.190 191.787,243.200 191.787 C 231.210 191.787,226.305 191.838,232.300 191.900 M309.690 208.622 C 309.641 209.214,309.772 209.541,310.003 209.398 C 310.471 209.109,310.542 207.600,310.087 207.600 C 309.915 207.600,309.736 208.060,309.690 208.622 M255.941 226.101 C 256.143 226.303,256.733 226.401,257.254 226.319 C 258.055 226.193,257.998 226.137,256.887 225.952 C 256.093 225.821,255.719 225.879,255.941 226.101 M16.400 230.000 C 16.400 230.264,30.325 230.400,57.376 230.400 C 84.263 230.400,98.438 230.262,98.600 230.000 C 98.764 229.734,85.004 229.600,57.624 229.600 C 30.408 229.600,16.400 229.736,16.400 230.000 M211.600 230.000 C 211.600 230.262,220.067 230.400,236.200 230.400 C 252.333 230.400,260.800 230.262,260.800 230.000 C 260.800 229.738,252.333 229.600,236.200 229.600 C 220.067 229.600,211.600 229.738,211.600 230.000 M308.716 230.697 C 310.099 230.775,312.259 230.774,313.516 230.695 C 314.772 230.616,313.640 230.552,311.000 230.553 C 308.360 230.553,307.332 230.618,308.716 230.697 M35.639 240.032 C 36.328 240.468,37.200 240.506,37.200 240.100 C 37.200 239.935,36.722 239.772,36.138 239.738 C 35.379 239.694,35.237 239.778,35.639 240.032 M246.600 244.000 C 246.736 244.220,247.117 244.400,247.447 244.400 C 247.777 244.400,247.936 244.220,247.800 244.000 C 247.664 243.780,247.283 243.600,246.953 243.600 C 246.623 243.600,246.464 243.780,246.600 244.000 M93.975 246.223 C 94.622 246.346,95.233 246.710,95.334 247.031 C 95.452 247.403,95.496 247.358,95.456 246.908 C 95.412 246.413,95.004 246.170,94.097 246.100 C 92.860 246.005,92.854 246.010,93.975 246.223 M233.838 248.702 C 200.351 248.811,201.158 248.760,201.247 250.749 C 201.293 251.762,201.304 251.756,201.551 250.600 L 201.808 249.400 234.004 249.200 C 251.712 249.090,266.020 248.910,265.800 248.800 C 265.580 248.690,251.197 248.646,233.838 248.702 M15.867 249.067 C 15.720 249.213,15.603 249.528,15.606 249.767 C 15.610 250.025,15.740 249.999,15.929 249.702 C 16.177 249.311,24.771 249.182,55.822 249.100 L 95.400 248.996 55.767 248.898 C 33.968 248.844,16.013 248.920,15.867 249.067 M121.400 266.000 L 92.600 266.208 121.700 266.304 C 140.897 266.367,150.800 266.264,150.800 266.000 C 150.800 265.780,150.665 265.643,150.500 265.696 C 150.335 265.749,137.240 265.886,121.400 266.000 M338.316 266.061 C 337.957 266.288,338.067 266.390,338.676 266.394 C 339.158 266.397,339.645 266.250,339.759 266.067 C 340.024 265.638,338.989 265.633,338.316 266.061 M151.700 266.276 C 152.085 266.376,152.715 266.376,153.100 266.276 C 153.485 266.175,153.170 266.093,152.400 266.093 C 151.630 266.093,151.315 266.175,151.700 266.276 " stroke="none" fill="#f01c64" fill-rule="evenodd"></path><path id="path3" d="M283.170 150.268 L 282.200 151.336 283.287 150.568 C 283.886 150.146,284.381 149.665,284.387 149.500 C 284.408 149.007,284.189 149.146,283.170 150.268 M38.931 191.900 C 51.213 191.959,71.193 191.959,83.331 191.900 C 95.469 191.841,85.420 191.793,61.000 191.793 C 36.580 191.793,26.649 191.841,38.931 191.900 M232.300 191.900 C 238.295 191.962,248.105 191.962,254.100 191.900 C 260.095 191.838,255.190 191.787,243.200 191.787 C 231.210 191.787,226.305 191.838,232.300 191.900 M309.690 208.622 C 309.641 209.214,309.772 209.541,310.003 209.398 C 310.471 209.109,310.542 207.600,310.087 207.600 C 309.915 207.600,309.736 208.060,309.690 208.622 M255.941 226.101 C 256.143 226.303,256.733 226.401,257.254 226.319 C 258.055 226.193,257.998 226.137,256.887 225.952 C 256.093 225.821,255.719 225.879,255.941 226.101 M16.400 230.000 C 16.400 230.264,30.325 230.400,57.376 230.400 C 84.263 230.400,98.438 230.262,98.600 230.000 C 98.764 229.734,85.004 229.600,57.624 229.600 C 30.408 229.600,16.400 229.736,16.400 230.000 M211.600 230.000 C 211.600 230.262,220.067 230.400,236.200 230.400 C 252.333 230.400,260.800 230.262,260.800 230.000 C 260.800 229.738,252.333 229.600,236.200 229.600 C 220.067 229.600,211.600 229.738,211.600 230.000 M308.716 230.697 C 310.099 230.775,312.259 230.774,313.516 230.695 C 314.772 230.616,313.640 230.552,311.000 230.553 C 308.360 230.553,307.332 230.618,308.716 230.697 M35.639 240.032 C 36.328 240.468,37.200 240.506,37.200 240.100 C 37.200 239.935,36.722 239.772,36.138 239.738 C 35.379 239.694,35.237 239.778,35.639 240.032 M246.600 244.000 C 246.736 244.220,247.117 244.400,247.447 244.400 C 247.777 244.400,247.936 244.220,247.800 244.000 C 247.664 243.780,247.283 243.600,246.953 243.600 C 246.623 243.600,246.464 243.780,246.600 244.000 M93.975 246.223 C 94.622 246.346,95.233 246.710,95.334 247.031 C 95.452 247.403,95.496 247.358,95.456 246.908 C 95.412 246.413,95.004 246.170,94.097 246.100 C 92.860 246.005,92.854 246.010,93.975 246.223 M233.838 248.702 C 200.351 248.811,201.158 248.760,201.247 250.749 C 201.293 251.762,201.304 251.756,201.551 250.600 L 201.808 249.400 234.004 249.200 C 251.712 249.090,266.020 248.910,265.800 248.800 C 265.580 248.690,251.197 248.646,233.838 248.702 M15.867 249.067 C 15.720 249.213,15.603 249.528,15.606 249.767 C 15.610 250.025,15.740 249.999,15.929 249.702 C 16.177 249.311,24.771 249.182,55.822 249.100 L 95.400 248.996 55.767 248.898 C 33.968 248.844,16.013 248.920,15.867 249.067 M121.400 266.000 L 92.600 266.208 121.700 266.304 C 140.897 266.367,150.800 266.264,150.800 266.000 C 150.800 265.780,150.665 265.643,150.500 265.696 C 150.335 265.749,137.240 265.886,121.400 266.000 M338.316 266.061 C 337.957 266.288,338.067 266.390,338.676 266.394 C 339.158 266.397,339.645 266.250,339.759 266.067 C 340.024 265.638,338.989 265.633,338.316 266.061 M151.700 266.276 C 152.085 266.376,152.715 266.376,153.100 266.276 C 153.485 266.175,153.170 266.093,152.400 266.093 C 151.630 266.093,151.315 266.175,151.700 266.276 " stroke="none" fill="#f01c64" fill-rule="evenodd"></path><path id="path4" d="M283.170 150.268 L 282.200 151.336 283.287 150.568 C 283.886 150.146,284.381 149.665,284.387 149.500 C 284.408 149.007,284.189 149.146,283.170 150.268 M38.931 191.900 C 51.213 191.959,71.193 191.959,83.331 191.900 C 95.469 191.841,85.420 191.793,61.000 191.793 C 36.580 191.793,26.649 191.841,38.931 191.900 M232.300 191.900 C 238.295 191.962,248.105 191.962,254.100 191.900 C 260.095 191.838,255.190 191.787,243.200 191.787 C 231.210 191.787,226.305 191.838,232.300 191.900 M309.690 208.622 C 309.641 209.214,309.772 209.541,310.003 209.398 C 310.471 209.109,310.542 207.600,310.087 207.600 C 309.915 207.600,309.736 208.060,309.690 208.622 M255.941 226.101 C 256.143 226.303,256.733 226.401,257.254 226.319 C 258.055 226.193,257.998 226.137,256.887 225.952 C 256.093 225.821,255.719 225.879,255.941 226.101 M16.400 230.000 C 16.400 230.264,30.325 230.400,57.376 230.400 C 84.263 230.400,98.438 230.262,98.600 230.000 C 98.764 229.734,85.004 229.600,57.624 229.600 C 30.408 229.600,16.400 229.736,16.400 230.000 M211.600 230.000 C 211.600 230.262,220.067 230.400,236.200 230.400 C 252.333 230.400,260.800 230.262,260.800 230.000 C 260.800 229.738,252.333 229.600,236.200 229.600 C 220.067 229.600,211.600 229.738,211.600 230.000 M308.716 230.697 C 310.099 230.775,312.259 230.774,313.516 230.695 C 314.772 230.616,313.640 230.552,311.000 230.553 C 308.360 230.553,307.332 230.618,308.716 230.697 M35.639 240.032 C 36.328 240.468,37.200 240.506,37.200 240.100 C 37.200 239.935,36.722 239.772,36.138 239.738 C 35.379 239.694,35.237 239.778,35.639 240.032 M246.600 244.000 C 246.736 244.220,247.117 244.400,247.447 244.400 C 247.777 244.400,247.936 244.220,247.800 244.000 C 247.664 243.780,247.283 243.600,246.953 243.600 C 246.623 243.600,246.464 243.780,246.600 244.000 M93.975 246.223 C 94.622 246.346,95.233 246.710,95.334 247.031 C 95.452 247.403,95.496 247.358,95.456 246.908 C 95.412 246.413,95.004 246.170,94.097 246.100 C 92.860 246.005,92.854 246.010,93.975 246.223 M233.838 248.702 C 200.351 248.811,201.158 248.760,201.247 250.749 C 201.293 251.762,201.304 251.756,201.551 250.600 L 201.808 249.400 234.004 249.200 C 251.712 249.090,266.020 248.910,265.800 248.800 C 265.580 248.690,251.197 248.646,233.838 248.702 M15.867 249.067 C 15.720 249.213,15.603 249.528,15.606 249.767 C 15.610 250.025,15.740 249.999,15.929 249.702 C 16.177 249.311,24.771 249.182,55.822 249.100 L 95.400 248.996 55.767 248.898 C 33.968 248.844,16.013 248.920,15.867 249.067 M121.400 266.000 L 92.600 266.208 121.700 266.304 C 140.897 266.367,150.800 266.264,150.800 266.000 C 150.800 265.780,150.665 265.643,150.500 265.696 C 150.335 265.749,137.240 265.886,121.400 266.000 M338.316 266.061 C 337.957 266.288,338.067 266.390,338.676 266.394 C 339.158 266.397,339.645 266.250,339.759 266.067 C 340.024 265.638,338.989 265.633,338.316 266.061 M151.700 266.276 C 152.085 266.376,152.715 266.376,153.100 266.276 C 153.485 266.175,153.170 266.093,152.400 266.093 C 151.630 266.093,151.315 266.175,151.700 266.276 " stroke="none" fill="#f01c64" fill-rule="evenodd"></path></g></svg>